<svg width="45" height="24" viewBox="0 0 45 24" fill="none" xmlns="http://www.w3.org/2000/svg">
<path d="M44.1431 21.2C44.0901 21.0956 44.0407 21.009 43.9948 20.9396C43.2358 19.6897 41.7852 18.1555 39.6441 16.3366L39.5988 16.295L39.5762 16.2746L39.5533 16.2536H39.5303C38.5585 15.4067 37.9432 14.8372 37.6855 14.5456C37.2139 13.9902 37.1083 13.428 37.366 12.8584C37.5481 12.428 38.232 11.5191 39.4161 10.1305C40.039 9.39452 40.5323 8.80469 40.8966 8.36031C43.524 5.16678 44.663 3.12607 44.3136 2.23738L44.1779 2.0297C44.0867 1.90467 43.8513 1.7903 43.4721 1.68598C43.092 1.58189 42.6062 1.56468 42.0138 1.63405L35.4537 1.67548C35.3474 1.64105 35.1957 1.64426 34.998 1.68598C34.8005 1.72771 34.7017 1.74864 34.7017 1.74864L34.5875 1.8008L34.4969 1.86346C34.421 1.90489 34.3374 1.97776 34.2462 2.08193C34.1555 2.18573 34.0796 2.30755 34.019 2.44636C33.3048 4.12636 32.4927 5.68833 31.5814 7.13221C31.0195 7.99318 30.5034 8.73933 30.0321 9.37111C29.5615 10.0027 29.1666 10.468 28.848 10.7663C28.5289 11.0648 28.2408 11.304 27.9822 11.4847C27.7239 11.6655 27.5268 11.7418 27.3903 11.7139C27.2534 11.6859 27.1246 11.6582 27.0026 11.6305C26.7901 11.5055 26.6192 11.3354 26.4904 11.1203C26.361 10.9051 26.2738 10.6342 26.2283 10.3079C26.183 9.98144 26.1562 9.7006 26.1485 9.46448C26.1414 9.22865 26.1447 8.89507 26.1601 8.46469C26.1759 8.0341 26.183 7.74276 26.183 7.59001C26.183 7.06233 26.1942 6.48963 26.2168 5.87179C26.2398 5.25394 26.2584 4.76441 26.2739 4.40377C26.2894 4.04276 26.2966 3.66083 26.2966 3.25817C26.2966 2.85551 26.2698 2.53973 26.2168 2.31054C26.1645 2.08164 26.0841 1.85945 25.9783 1.64404C25.8717 1.42885 25.7158 1.26239 25.5113 1.14422C25.3063 1.0262 25.0515 0.932534 24.7482 0.862945C23.9433 0.696411 22.9183 0.606324 21.6728 0.592319C18.8484 0.5646 17.0335 0.731352 16.2287 1.09236C15.9098 1.24488 15.6212 1.45329 15.3632 1.71691C15.0898 2.02248 15.0516 2.18923 15.249 2.21666C16.1603 2.34147 16.8054 2.64003 17.1851 3.11206L17.322 3.36219C17.4284 3.54265 17.5347 3.86215 17.641 4.32025C17.7472 4.77834 17.8157 5.28509 17.8459 5.8402C17.9217 6.85392 17.9217 7.72168 17.8459 8.44354C17.7699 9.1657 17.6981 9.72788 17.6295 10.1305C17.561 10.5332 17.4586 10.8595 17.322 11.1093C17.1851 11.3592 17.0941 11.512 17.0485 11.5674C17.0029 11.6229 16.9649 11.6578 16.9348 11.6715C16.7374 11.7407 16.5321 11.7759 16.3196 11.7759C16.1069 11.7759 15.8488 11.6786 15.5452 11.4841C15.2416 11.2896 14.9265 11.0225 14.6 10.6823C14.2734 10.342 13.9051 9.86648 13.495 9.25564C13.0851 8.6448 12.6599 7.92286 12.2195 7.08983L11.8551 6.48569C11.6273 6.09704 11.3162 5.53114 10.9213 4.78848C10.5262 4.04554 10.177 3.32688 9.87344 2.63266C9.75209 2.3411 9.56979 2.11913 9.32684 1.96639L9.21283 1.90372C9.13704 1.84829 9.01537 1.78942 8.84846 1.72669C8.68131 1.66403 8.50691 1.61909 8.32452 1.59145L2.08313 1.63288C1.44534 1.63288 1.01259 1.76498 0.784727 2.02883L0.693534 2.15363C0.647978 2.22315 0.625 2.33417 0.625 2.48699C0.625 2.63974 0.670556 2.82721 0.761749 3.04918C1.67288 5.00703 2.66371 6.89521 3.73425 8.71402C4.80479 10.5328 5.73506 11.9979 6.52452 13.108C7.31414 14.2189 8.119 15.2673 8.9391 16.2528C9.75919 17.2387 10.302 17.8704 10.5676 18.148C10.8336 18.4261 11.0424 18.634 11.1943 18.7728L11.7638 19.2725C12.1283 19.6058 12.6635 20.005 13.3696 20.47C14.076 20.9353 14.8579 21.3934 15.7159 21.845C16.5741 22.2959 17.5724 22.6638 18.7115 22.9484C19.8504 23.2332 20.9589 23.3475 22.0372 23.2924H24.6568C25.1881 23.2504 25.5906 23.0977 25.8642 22.8341L25.9548 22.7297C26.0157 22.6468 26.0728 22.5181 26.1255 22.3448C26.1787 22.1713 26.2052 21.9801 26.2052 21.7721C26.1897 21.1752 26.2394 20.6373 26.353 20.1583C26.4665 19.6795 26.5959 19.3185 26.7407 19.0754C26.8853 18.8324 27.0485 18.6275 27.2302 18.4613C27.4123 18.2948 27.542 18.1939 27.6181 18.1592C27.6938 18.1242 27.7542 18.1005 27.7997 18.0863C28.1642 17.9753 28.5931 18.0828 29.0871 18.4094C29.5807 18.7356 30.0437 19.1385 30.4768 19.6173C30.9096 20.0966 31.4296 20.6343 32.0369 21.2312C32.6447 21.8283 33.176 22.2722 33.6314 22.5642L34.0868 22.8141C34.391 22.9808 34.7858 23.1336 35.2719 23.2724C35.757 23.4111 36.1821 23.4459 36.5471 23.3765L42.3783 23.2933C42.955 23.2933 43.4038 23.206 43.7221 23.0328C44.0411 22.8592 44.2306 22.668 44.2917 22.4601C44.3527 22.2519 44.3559 22.0157 44.3033 21.7516C44.2493 21.4882 44.196 21.304 44.1431 21.2Z" fill="white"/>
</svg>
