<svg width="48" height="38" viewBox="0 0 48 38" fill="none" xmlns="http://www.w3.org/2000/svg">
<path d="M9.70312 0.5625C9.60938 1.26562 9.54688 1.98438 9.51562 2.71875C9.48438 3.4375 9.46875 4.1875 9.46875 4.96875C9.46875 6.35938 9.53906 7.78125 9.67969 9.23438C9.82031 10.6719 10.0312 12.1094 10.3125 13.5469C10.5938 14.9844 10.9453 16.3984 11.3672 17.7891C11.7891 19.1641 12.2734 20.4766 12.8203 21.7266C13.3828 22.9766 14.0078 24.1406 14.6953 25.2188C15.3984 26.2969 16.1719 27.25 17.0156 28.0781C17.9375 27.125 18.6797 26.0312 19.2422 24.7969C19.8203 23.5469 20.2656 22.25 20.5781 20.9062C20.9062 19.5469 21.125 18.1797 21.2344 16.8047C21.3438 15.4297 21.4062 14.125 21.4219 12.8906H26.5781C26.5781 14.125 26.6328 15.4219 26.7422 16.7812C26.8516 18.1406 27.0625 19.4922 27.375 20.8359C27.6875 22.1641 28.125 23.4531 28.6875 24.7031C29.25 25.9375 29.9844 27.0469 30.8906 28.0312C32.2031 26.6094 33.3359 25 34.2891 23.2031C35.2422 21.3906 36.0312 19.4922 36.6562 17.5078C37.2812 15.5234 37.7422 13.4922 38.0391 11.4141C38.3359 9.33594 38.4844 7.29688 38.4844 5.29688C38.4844 3.625 38.3906 2.01562 38.2031 0.46875C39.5781 0.53125 40.8047 0.625 41.8828 0.75C42.9766 0.875 43.9219 1 44.7188 1.125C45.625 1.28125 46.4375 1.4375 47.1562 1.59375V7.5C46.6406 7.32812 46.1328 7.19531 45.6328 7.10156C45.1484 6.99219 44.6719 6.875 44.2031 6.75C44.2031 10.1094 43.875 13.2266 43.2188 16.1016C42.5781 18.9609 41.6797 21.6328 40.5234 24.1172C39.3672 26.6016 37.9844 28.9062 36.375 31.0312C34.7656 33.1562 33 35.1406 31.0781 36.9844C29.7031 35.6562 28.4219 34.1719 27.2344 32.5312C26.0625 30.8906 24.9844 29.0312 24 26.9531C22.9844 29.0312 21.875 30.8984 20.6719 32.5547C19.4844 34.2109 18.2031 35.7031 16.8281 37.0312C14.9219 35.1875 13.1797 33.2031 11.6016 31.0781C10.0234 28.9531 8.67188 26.6484 7.54688 24.1641C6.42188 21.6797 5.54688 19.0078 4.92188 16.1484C4.29688 13.2734 3.98438 10.1562 3.98438 6.79688C3.42188 6.92188 2.875 7.03906 2.34375 7.14844C1.82812 7.24219 1.3125 7.375 0.796875 7.54688V1.59375C0.796875 1.60938 1 1.57812 1.40625 1.5C1.82812 1.42188 2.42188 1.32813 3.1875 1.21875C3.96875 1.09375 4.90625 0.976563 6 0.867188C7.09375 0.742188 8.32812 0.640625 9.70312 0.5625Z" fill="#34547A"/>
</svg>
